<svg width="32" height="32" fill="none" xmlns="http://www.w3.org/2000/svg"><g clip-path="url('#clip0_2696_413')"><g clip-path="url('#clip1_2696_413')"><g clip-path="url('#clip2_2696_413')" fill="#E74040"><path d="M11.275 21.606h9.45v4.725h-9.45v-4.725Z"/><path d="M16 3.652c-5.732 0-10.395 4.663-10.395 10.394V28.22A3.784 3.784 0 0 0 9.385 32h13.23a3.784 3.784 0 0 0 3.779-3.78V14.046c0-5.731-4.663-10.394-10.394-10.394Zm-5.67 8.504h11.34v1.89h-1.89v1.89h-1.89v-1.89h-7.56v-1.89ZM22.614 28.22H9.385v-8.504h13.23v8.504ZM25.704 1.839 20.341 0l-.784 2.288a12.293 12.293 0 0 1 4.985 2.94l1.162-3.39ZM12.443 2.288 11.658 0 6.295 1.839l1.162 3.389a12.294 12.294 0 0 1 4.986-2.94Z"/></g></g></g><defs><clipPath id="clip0_2696_413"><path fill="#fff" d="M0 0h32v32H0z"/></clipPath><clipPath id="clip1_2696_413"><path fill="#fff" d="M0 0h32v32H0z"/></clipPath><clipPath id="clip2_2696_413"><path fill="#fff" transform="translate(5.605)" d="M0 0h20.788v32H0z"/></clipPath></defs></svg>